<svg xmlns="http://www.w3.org/2000/svg" fill="none" viewBox="-3.65 -3.65 48 48" style="background-color: #000000" id="Contact-Phonebook--Streamline-Plump.svg"><desc>Contact Phonebook Streamline Icon: https://streamlinehq.com</desc><g id="Contact-Phonebook--Streamline-Plump.svg"><path id="Rectangle 1098" stroke="#ffc62b" stroke-linejoin="round" d="M4.682803125 32.39998125c-1.16025 -0.034125 -2.075653125 -0.778903125 -2.1140437500000004 -1.9383a18.13573125 18.13573125 0 0 1 0 -1.2046124999999999c0.038390625 -1.16025 0.9537937500000001 -1.9041750000000002 2.1140437500000004 -1.9383a44.168840625 44.168840625 0 0 1 2.5781437499999997 0c1.16025 0.034125 2.075653125 0.778903125 2.1140437500000004 1.9383a18.0418875 18.0418875 0 0 1 0 1.2046124999999999c-0.038390625 1.16025 -0.9537937500000001 1.9041750000000002 -2.1140437500000004 1.9383a44.1679875 44.1679875 0 0 1 -2.5781437499999997 0Z" stroke-width="2.5"></path><path id="Rectangle 1099" stroke="#ffc62b" stroke-linejoin="round" d="M4.682803125 23.01560625c-1.16025 -0.034125 -2.075653125 -0.778903125 -2.1140437500000004 -1.9383a18.13573125 18.13573125 0 0 1 0 -1.2046124999999999c0.038390625 -1.16025 0.9537937500000001 -1.9041750000000002 2.1140437500000004 -1.9383a44.168840625 44.168840625 0 0 1 2.5781437499999997 0c1.16025 0.034125 2.075653125 0.778903125 2.1140437500000004 1.9383a18.0418875 18.0418875 0 0 1 0 1.2046124999999999c-0.038390625 1.16025 -0.9537937500000001 1.9041750000000002 -2.1140437500000004 1.9383a44.1679875 44.1679875 0 0 1 -2.5781437499999997 0Z" stroke-width="2.5"></path><path id="Rectangle 1100" stroke="#ffc62b" stroke-linejoin="round" d="M4.682803125 13.63123125c-1.16025 -0.034125 -2.075653125 -0.778903125 -2.1140437500000004 -1.9383a18.13573125 18.13573125 0 0 1 0 -1.2046124999999999c0.038390625 -1.16025 0.9537937500000001 -1.9041750000000002 2.1140437500000004 -1.9383a44.168840625 44.168840625 0 0 1 2.5781437499999997 0c1.16025 0.034125 2.075653125 0.778903125 2.1140437500000004 1.9383a18.0418875 18.0418875 0 0 1 0 1.2046124999999999c-0.038390625 1.16025 -0.9537937500000001 1.9041750000000002 -2.1140437500000004 1.9383a44.1679875 44.1679875 0 0 1 -2.5781437499999997 0Z" stroke-width="2.5"></path><path id="Subtract" stroke="#ffc62b" stroke-linejoin="round" d="M6.288384375000001 32.417896875000004c0.033271875 0.54088125 0.06654375 1.0374 0.099815625 1.4895562500000001 0.16038750000000002 2.178028125 1.802653125 3.8672156250000005 3.9789749999999997 4.05234375 2.5081875 0.2149875 6.380521875 0.430828125 11.814075 0.430828125 5.43440625 0 9.306740625000002 -0.215840625 11.814075 -0.429975 2.176321875 -0.18598125000000001 3.8194406250000004 -1.87516875 3.9789749999999997 -4.05234375C38.17734375 31.1527125 38.390625 26.758265625 38.390625 20.475s-0.21328125 -10.678565625 -0.416325 -13.432453125c-0.16038750000000002 -2.17888125 -1.802653125 -3.8663625 -3.9789749999999997 -4.05234375C31.487137500000003 2.7743625 27.615656249999997 2.559375 22.181250000000002 2.559375c-5.43440625 0 -9.306740625000002 0.215840625 -11.814075 0.429975 -2.17546875 0.186834375 -3.8185875 1.8743156250000002 -3.9789749999999997 4.05234375 -0.034125 0.45215625000000004 -0.06654375 0.9486750000000002 -0.099815625 1.490409375" stroke-width="2.5"></path><path id="Subtract_2" stroke="#ffc62b" stroke-linejoin="round" d="M6.064865625 27.3a222.71851875000002 222.71851875000002 0 0 1 -0.081046875 -4.265625" stroke-width="2.5"></path><path id="Subtract_3" stroke="#ffc62b" stroke-linejoin="round" d="M5.98381875 17.915625000000002c0.014503125000000002 -1.5561 0.04265625000000001 -2.9757000000000002 0.081046875 -4.265625" stroke-width="2.5"></path><path id="Union" stroke="#ffc62b" stroke-linejoin="round" d="M25.772053125 21.388696875a5.11875 5.11875 0 1 0 -5.49241875 -0.011943750000000001c-2.4416437500000003 0.88213125 -4.311693750000001 2.914275 -4.921678125000001 5.4224625 -0.266175 1.092 0.37366875 2.13110625 1.4614031250000001 2.41775625 1.215703125 0.32077500000000003 3.1838625 0.642403125 6.189421875 0.642403125 3.0064125 0 4.973718750000001 -0.321628125 6.189421875 -0.642403125 1.087734375 -0.28665 1.727578125 -1.324903125 1.4614031250000001 -2.41775625 -0.607425 -2.497096875 -2.462971875 -4.5215625 -4.88840625 -5.41051875Z" stroke-width="2.5"></path></g></svg>