<svg xmlns="http://www.w3.org/2000/svg" fill="none" viewBox="-1 -1 48 48" id="User-Protection-Check--Streamline-Plump.svg"><desc>User Protection Check Streamline Icon: https://streamlinehq.com</desc><g id="User-Protection-Check--Streamline-Plump.svg"><path id="Rectangle 112" stroke="#dbdbdb" stroke-linecap="round" stroke-linejoin="round" d="M24.56745 27.978445833333335C24.710529166666667 26.359437500000002 25.716970833333335 25.06779583333333 27.326204166666667 24.840479166666668C28.735433333333333 24.64152916666667 30.89925416666667 24.4699875 34.17637083333334 24.4699875C37.4534875 24.4699875 39.617308333333334 24.64152916666667 41.026537499999996 24.840479166666668C42.63577083333333 25.06779583333333 43.643170833333336 26.359437500000002 43.784333333333336 27.978445833333335C43.911408333333334 29.418820833333335 43.975520833333334 30.8639875 43.97638333333333 32.31001666666666C43.97638333333333 36.73368333333334 41.641020833333336 40.87320416666667 37.708308333333335 42.897875C36.39414583333333 43.574075 35.11132083333334 44.070012500000004 34.17637083333334 44.070012500000004C33.241420833333336 44.070012500000004 31.958595833333337 43.574075 30.644433333333335 42.897875C26.7107625 40.87320416666667 24.376358333333332 36.73368333333334 24.376358333333332 32.31001666666666C24.376358333333332 30.63619166666667 24.465579166666668 29.141670833333333 24.56745 27.978445833333335Z" stroke-width="2"></path><path id="Vector 993" stroke="#dbdbdb" stroke-linecap="round" stroke-linejoin="round" d="M30.746399999999998 33.0616375L33.97445 36.71997916666667L38.586333333333336 29.8600375" stroke-width="2"></path><path id="Union" stroke="#dbdbdb" stroke-linecap="round" stroke-linejoin="round" d="M21.384441666666667 22.340475C25.022275 20.50871666666667 27.317195833333333 16.783004166666665 27.316333333333336 12.709991666666667C27.316333333333336 6.7565375 22.489879166666668 1.9299875000000002 16.536329166666665 1.9299875000000002S5.756420833333334 6.7565375 5.756420833333334 12.709991666666667C5.755558333333333 16.783004166666665 8.050479166666666 20.50871666666667 11.6883125 22.340475C6.771679166666667 24.041708333333332 3.0466375 28.257704166666667 2.0814041666666667 33.4330875C1.7697541666666667 35.10499583333334 2.7428458333333334 36.47110000000001 4.430470833333334 36.6896C6.483508333333333 36.95515416666667 10.124216666666666 37.20997500000001 16.536425 37.20997500000001C17.589920833333334 37.20997500000001 18.5679 37.20317083333334 19.4764 37.190425000000005" stroke-width="2"></path></g></svg>